<svg xmlns="http://www.w3.org/2000/svg" viewBox="0 0 131.2 21.08"><defs><style>.cls-1{fill:#fff;}</style></defs><g id="Capa_2" data-name="Capa 2"><g id="Capa_1-2" data-name="Capa 1"><path class="cls-1" d="M17,13.9,20.17,13l.14,0h.15q.15,0,.15,0s-.12.06-.35.13l-.84.23c-.32.1-.66.19-1,.28l-.89.21v0a2.21,2.21,0,0,1-.39.12l-.94.23-1.11.27-.92.23h.11q1.07-.23,1.83-.42l1.42-.37,1.28-.34c.43-.11.91-.23,1.46-.35h.15c.09,0,.14,0,.14,0s-.09.07-.27.1l-.31.07a.44.44,0,0,0-.14.05l-.31.12-.33.13-.25.09.53-.1.26,0s0,0,0,0a1.34,1.34,0,0,1-.3.14l-.68.23-.67.23a1.19,1.19,0,0,0-.31.11h0l.44-.06.69-.12.67-.11a2.83,2.83,0,0,1,.44-.06s0,0,0,0a1.7,1.7,0,0,1-.45.16c-.31.09-.84.22-1.59.4H18l-.52.17c-.25.09-.52.18-.8.26l-.75.24a2.27,2.27,0,0,1-.38.1.13.13,0,0,0,.08,0,3.07,3.07,0,0,0,.51-.08l.82-.21.95-.27.9-.27.7-.22.31-.09a1.09,1.09,0,0,1,.26,0q.15,0,.15.06s0,.06-.1.07l-.23,0-.23.07a.15.15,0,0,0-.1.15v0a0,0,0,0,1,0,0s-.08.09-.24.16l-.54.25-.54.23c-.17.07-.25.12-.25.14v0l0,0a.36.36,0,0,1-.31.13l-.36,0a.26.26,0,0,0-.11.12A.41.41,0,0,1,17,16l.26,0h.38l-.08,0-.19,0-.22.05-.15,0h0l-.14.05s-.06,0-.06.06,0,.06.07.06a2.55,2.55,0,0,0,.48-.07L18,16l.69-.15a2.17,2.17,0,0,1,.44-.07h.05l-1,.31-.88.27-.81.26s-.05.08-.16.19a.94.94,0,0,1-.51.24l-.59.19a8.75,8.75,0,0,1-1.06.32c-.44.12-.95.22-1.52.32a14.15,14.15,0,0,1-2,.16A7.15,7.15,0,0,1,6.2,16.91a4.07,4.07,0,0,1-1.47-3.36,9.07,9.07,0,0,1,.19-1.9A10.16,10.16,0,0,1,5.46,9.9H4.21l-1.89,0-1-.05a1.37,1.37,0,0,1-.41-.07c-.05,0-.07,0-.07,0s.05,0,.14,0l.4,0A6.91,6.91,0,0,1,.27,9.59C.09,9.55,0,9.5,0,9.42s.07-.11.22-.13l.42-.06c-.18,0-.27,0-.27-.1a.09.09,0,0,1,0-.06S.48,9,.59,9L1.1,9l1,0,1.57,0L6,8.87A11,11,0,0,1,8,6.26a13.69,13.69,0,0,1,2.6-1.95A12.83,12.83,0,0,1,13.42,3.1a9.75,9.75,0,0,1,2.72-.42,16.13,16.13,0,0,1,1.62.07A11.06,11.06,0,0,1,19,2.92a3.92,3.92,0,0,1,.82.24c.2.09.3.19.3.28a.1.1,0,0,1-.06.09L20,3.59l-.13.07a.11.11,0,0,0-.06.11c0,.06,0,.09.07.09a1.46,1.46,0,0,0,.41-.07,1.52,1.52,0,0,1,.42-.08c.09,0,.13,0,.13.09a.16.16,0,0,1-.06.13.47.47,0,0,1-.26.09.3.3,0,0,1,.19.27c0,.08,0,.12-.13.12h-.48c-.28.17-.51.31-.69.4a3.8,3.8,0,0,1-.49.22,1.35,1.35,0,0,1-.35.07h-.28l-.26,0L17.74,5c-.1,0-.27,0-.5,0L16.18,5a5.52,5.52,0,0,0-1.8.29,6.43,6.43,0,0,0-1.64.81,7.51,7.51,0,0,0-1.4,1.25A8.44,8.44,0,0,0,10.25,8.9l10,.14h-.85c-.5,0-.75,0-.75,0l.48,0,1.27,0,1.8,0,2.05,0,2.05,0,1.8,0,1.27,0a1.38,1.38,0,0,1,.48.05s-.09,0-.28,0H29.1s.07,0,.2,0h.25l.26,0-.15,0v0h-.08l-1.09,0L26,9.61c-1.07,0-2.4.09-4,.13s-3.46.09-5.62.12l-6.6,0a7.94,7.94,0,0,0-.49,2.73,2.84,2.84,0,0,0,.13.9,2,2,0,0,0,.38.72,1.77,1.77,0,0,0,.7.47,2.88,2.88,0,0,0,1.05.17,5.17,5.17,0,0,0,1-.1l.66,0,.17-.05Zm0,.7-.77.21c-.32.08-.62.17-.91.26s-.55.16-.76.23a1.4,1.4,0,0,0-.32.12h0a4.39,4.39,0,0,0,.59-.1L16.4,15Zm-.8,1.58a.11.11,0,0,0,0,.06l0,.05c.2-.05.29-.12.29-.2Zm1.57-.27s0,0,.08-.05l.2-.06a.9.9,0,0,1,.22-.06l.18,0c.06,0,.09,0,.09,0l-.08,0-.19,0L18,15.9l-.22,0S17.71,15.92,17.71,15.91Zm.24-.36a0,0,0,0,0,0,0Zm.21,0h.24a1.22,1.22,0,0,1-.34.08s0,0,.05,0Zm.54-.06-.3.05.26-.09.17-.05,0,0S18.8,15.43,18.7,15.45Zm2.91-1.67-.25.08a.66.66,0,0,1-.23,0h-.05a.51.51,0,0,1,.23-.17.69.69,0,0,1,.24-.06c.07,0,.11,0,.11.05A.18.18,0,0,1,21.61,13.78Z"/><path class="cls-1" d="M37,3a5.28,5.28,0,0,1,1.33.64,4.11,4.11,0,0,1,1,1A4.54,4.54,0,0,1,40,6a6.63,6.63,0,0,1,.23,1.81A9.58,9.58,0,0,1,40,10.07h1l0,0h0l-.38,0-.68,0a9.46,9.46,0,0,1-1.58,3.36,10.88,10.88,0,0,1-2.66,2.54,12.65,12.65,0,0,1-3.43,1.59,13.64,13.64,0,0,1-3.88.56A9.87,9.87,0,0,1,26,18a5.33,5.33,0,0,1-1.95-.92,4.32,4.32,0,0,1-1.32-1.65A5.77,5.77,0,0,1,22.28,13a9.21,9.21,0,0,1,.44-2.86A9.67,9.67,0,0,1,24,7.64a10.41,10.41,0,0,1,1.84-2,12.17,12.17,0,0,1,2.28-1.54,13.93,13.93,0,0,1,2.57-1,13.19,13.19,0,0,1,2.69-.47.48.48,0,0,1,.2-.27A.86.86,0,0,1,34,2.19a4.36,4.36,0,0,1,.74.08q.42.09.84.21c.27.08.53.16.76.25s.43.15.56.21Zm-4.48,2.9s0,0,0,0a.09.09,0,0,1,0-.08s0-.07.08-.12l.08-.08.3.09a1.05,1.05,0,0,1-.06-.24,1.94,1.94,0,0,1,0-.24A1.24,1.24,0,0,1,33,4.41a10.07,10.07,0,0,0-2.58,1.23,8.69,8.69,0,0,0-2,1.8,7.88,7.88,0,0,0-1.3,2.32,8,8,0,0,0-.46,2.76,3.65,3.65,0,0,0,.13,1,1.63,1.63,0,0,0,.45.77,2,2,0,0,0,.85.5,4.75,4.75,0,0,0,1.36.17,7.15,7.15,0,0,0,2.29-.34,5.83,5.83,0,0,0,1.81-1,5.51,5.51,0,0,0,1.31-1.49,6.61,6.61,0,0,0,.78-1.91h-.45l-.14,0H33.62l0,0h-.93s0,0,0,0h0l.13,0h.35l.12,0h.32a1.56,1.56,0,0,1,.55-.07h.91l.28,0h.27a8,8,0,0,0,.19-1.8,4.07,4.07,0,0,0-.08-.82,1.66,1.66,0,0,0-.27-.65A1.47,1.47,0,0,0,35,6.33a2.54,2.54,0,0,0-.91-.17.2.2,0,0,1,0,.09s0,.08-.13.12a.49.49,0,0,1-.23.06.23.23,0,0,1-.24-.13s0,0,0,0a.1.1,0,0,1,0-.08v0A.62.62,0,0,1,33,5.92L32.87,6a.4.4,0,0,1-.15,0A.24.24,0,0,1,32.48,5.87Zm-.78,4.32h0l0-.06s0,0,.05-.08a.1.1,0,0,1,0,0l.28.09s.06,0,.06.05,0,.09-.15.11l-.17,0s0,0,0,0A.13.13,0,0,0,31.7,10.19Zm.53-5h0l0-.06A.25.25,0,0,1,32.28,5a1.61,1.61,0,0,1,.27.1l.06,0c0,.05,0,.09-.14.11l-.18,0s0,0,0,0A.13.13,0,0,0,32.23,5.2Zm.61-2.81a0,0,0,0,1,0,0l0-.06s0,0,.05-.07a.1.1,0,0,1,0-.05l.28.09s.06,0,.06.05,0,.09-.14.11l-.18,0s0,0,0,0A.13.13,0,0,0,32.84,2.39Z"/><path class="cls-1" d="M53.68,17.57l.16-.28.22-.21a.93.93,0,0,0,0-.13.41.41,0,0,0,0-.07h0c-.05,0-.13.07-.24.23s-.22.32-.33.51-.23.35-.32.51-.16.22-.19.22,0,0,0-.11a.89.89,0,0,1,0-.22.53.53,0,0,1,0-.13.43.43,0,0,1,0-.11L52.7,18l-.27.19a1.42,1.42,0,0,0-.12.25,1.89,1.89,0,0,1-.11.25l-.21.22h0l.06-.08a3.09,3.09,0,0,0,.14-.32.9.9,0,0,1,.16-.29.05.05,0,0,1-.06-.06,1.6,1.6,0,0,1,.24-.51,14.85,14.85,0,0,1,.86-1.25.45.45,0,0,0-.26.11,3.25,3.25,0,0,0-.27.26l-.25.26c-.07.07-.12.11-.15.11s0,0,0,0a.55.55,0,0,1,.1-.18,1.17,1.17,0,0,0,.17-.31l-.27.29-.14.08.21-.22.06,0a.85.85,0,0,0,.22-.55,2.06,2.06,0,0,1,.17-.67c.12-.3.27-.65.47-1s.42-.84.68-1.33.52-1,.8-1.46.57-1,.86-1.49l.8-1.4c-.62.6-1.25,1.21-1.9,1.81s-1.28,1.18-1.91,1.72-1.22,1-1.79,1.46a18.18,18.18,0,0,1-1.55,1.06.37.37,0,0,1-.22.08.78.78,0,0,1-.57-.28A7.45,7.45,0,0,0,48,14.1a7.25,7.25,0,0,1-.79-.82,3.56,3.56,0,0,1-.45-.67,2.13,2.13,0,0,1-.2-.54,2.37,2.37,0,0,1-.05-.43c0-.09,0-.16,0-.24a1.48,1.48,0,0,0,0-.2v-.8c0-.25,0-.49,0-.71-.42.79-.82,1.52-1.2,2.2s-.7,1.28-1,1.78l-.91,1.63a5.28,5.28,0,0,0-.36.6c-.13.23-.25.45-.37.65a3.75,3.75,0,0,1-.36.51.43.43,0,0,1-.32.2c-.09,0-.13,0-.13-.13a.8.8,0,0,1,.09-.44l.2-.31a.51.51,0,0,1-.16.09l-.19,0a.73.73,0,0,1-.48-.15.59.59,0,0,1-.19-.48,1,1,0,0,1,.23-.57h-.1a.42.42,0,0,1-.29-.11.64.64,0,0,1-.12-.45,3.38,3.38,0,0,1,.19-1l.49-1.44c.12-.36.24-.67.34-.94s.23-.53.36-.78.31-.58.52-1,.5-.92.83-1.56.76-1.47,1.28-2.5c0-.07.12-.23.24-.49l.43-.87.49-.95c.16-.31.3-.57.41-.76s.29-.43.5-.43a1.85,1.85,0,0,1,.6.17,3,3,0,0,1,.77.47,2.23,2.23,0,0,1,.42.53,4.51,4.51,0,0,1,.29.67,5.15,5.15,0,0,1,.19.75q.07.38.12.75c0,.29.06.55.09.79s0,.45.07.67,0,.42,0,.63,0,.45,0,.7v.5c0,.18,0,.37,0,.57l-.19.3,0,0s0,0,.09-.06.07-.06.09-.06a6.63,6.63,0,0,1,1-.93c.42-.34.89-.69,1.43-1.05s1.09-.73,1.69-1.1,1.2-.73,1.8-1.08,1.18-.67,1.74-1l1.52-.8c.45-.23.83-.41,1.13-.55a3.38,3.38,0,0,1,.6-.22l.48,0,.38,0a1.88,1.88,0,0,1,.7.1.31.31,0,0,1,.2.27v0a.91.91,0,0,1,.14.55,5.06,5.06,0,0,1-.19,1.2c-.13.48-.28,1-.46,1.47s-.36,1-.56,1.44-.37.82-.53,1.11l-.18.35a1.49,1.49,0,0,1-.14.24c0,.08-.11.19-.2.31l-.37.57c-.15.24-.36.57-.63,1s-.6.94-1,1.59l-1.48,2.34c-.58.92-1.26,2-2.05,3.29a4.55,4.55,0,0,1-.27.48,5,5,0,0,0-.28.48.12.12,0,0,1-.08.12.48.48,0,0,0-.15.11v0a1.26,1.26,0,0,1,.14-.37c.1-.19.22-.41.38-.66l.48-.81.47-.8c.16-.26.28-.48.38-.66a1.28,1.28,0,0,0,.14-.38v0a1.54,1.54,0,0,0-.24.35c-.14.24-.32.52-.53.87s-.44.72-.68,1.13-.46.79-.68,1.14-.4.63-.55.86-.25.35-.28.35h0L55.35,16c-.18.32-.34.59-.49.83l-.46.78-.48.77c-.15.24-.29.44-.4.6s-.2.25-.24.25,0,0,0-.06a.41.41,0,0,0-.05.19l-.21.22a.43.43,0,0,1,.09-.25l.18-.21c0-.09.06-.22.12-.4s.14-.35.22-.55.16-.4.23-.59l.19-.48-.18.3-.29.26Zm-1,1.2V19l-.76,1.23L52.46,19Zm.7-.64v.14l-.21.21v-.14Zm0-1.85a2,2,0,0,1,.11-.29,2.55,2.55,0,0,0,.13-.29l.14-.14h-.09l-.08,0s-.07,0-.08.08Zm.27-.49v0Zm.14-.24h0l.15-.15a.2.2,0,0,0-.11.07Zm.62-1a.3.3,0,0,0-.09.1l-.14.21c-.06.07-.11.15-.16.22l-.09.15.19-.2a.51.51,0,0,1,.16-.12Zm0,1.62a2.84,2.84,0,0,1-.1.44,4,4,0,0,0-.12.43l.22-.17a3.69,3.69,0,0,1,.11-.45,2.21,2.21,0,0,0,.1-.46Zm.56-.33s0,0,.09-.08l.13-.24a3.66,3.66,0,0,0,.17-.4l-.15.25-.14.23A.82.82,0,0,0,54.88,15.82Zm1.9-.47v.23L56,16.81l.55-1.25Z"/><path class="cls-1" d="M62.23,10.18a.83.83,0,0,1,.33-.64,2.5,2.5,0,0,1,.79-.43l.11-.23c.26-.52.53-1,.81-1.55s.54-1,.77-1.36l.58-1a5.09,5.09,0,0,0,.27-.5,2.61,2.61,0,0,1,.66-.38q.45-.19,1.11-.42c.43-.15.91-.29,1.44-.44s1.08-.26,1.66-.38,1.16-.2,1.76-.26a14.74,14.74,0,0,1,1.74-.1,1.66,1.66,0,0,1,1,.36,4.12,4.12,0,0,1,.85.87,5.29,5.29,0,0,1,.59,1,2.11,2.11,0,0,1,.22.79v0a7.17,7.17,0,0,1-.57,2.34,5.72,5.72,0,0,1-1.13,1.66,5.86,5.86,0,0,1-1.53,1.11A8.76,8.76,0,0,1,72,11.3a12.53,12.53,0,0,1-1.78.31c-.59.05-1.14.07-1.66.07s-1,0-1.41,0l-.9,0h-.14c-.11.24-.26.56-.46,1s-.42.8-.66,1.24-.51.89-.79,1.34a14.31,14.31,0,0,1-.86,1.22,6.56,6.56,0,0,1-.85.88,1.26,1.26,0,0,1-.79.34.08.08,0,0,1-.09-.09.29.29,0,0,1,0-.09l.18-.52L61.15,18l-.07.11-.06,0h0a.67.67,0,0,1,.11-.33c.07-.14.15-.29.24-.44l.28-.47a2.74,2.74,0,0,0,.22-.38l-.21.25c-.1.18-.23.39-.38.63l-.45.69-.38.56a1.11,1.11,0,0,1-.18.23h0l0-.1,0-.12a1,1,0,0,0,.16-.26l.24-.48a1,1,0,0,1,.06-.15l.14-.29c0-.1.11-.24.2-.4v0s0,.05-.1.14-.12.19-.18.3l-.17.31c-.06.09-.09.13-.1.13h0a3.8,3.8,0,0,1,.17-.39c.11-.23.31-.65.61-1.23l-.56.79s0,0-.05,0l-.23.46c-.05.11-.1.2-.14.27s-.09.11-.13.11v0a.25.25,0,0,1,0-.08,1.73,1.73,0,0,1,.08-.18l.3-.63,0-.08-.23.47-.28.56c-.1.19-.19.34-.27.48s-.14.19-.17.19,0,0,0,0a.25.25,0,0,1,0-.08,1.73,1.73,0,0,1,.08-.18l.14-.3a1.13,1.13,0,0,1,.07-.2c.05-.12.11-.25.16-.39l.22-.58c-.13.26-.22.45-.29.57s-.09.17-.1.17,0,0,.06-.14.09-.25.16-.42.14-.36.22-.57l.23-.58c.07-.19.13-.35.19-.48a1.34,1.34,0,0,1,.11-.25,6,6,0,0,0-.32.54l-.32.59-.26.49c-.08.13-.13.2-.15.2a1.65,1.65,0,0,1,.09-.3c.06-.16.17-.42.32-.77s.36-.81.61-1.38.57-1.26,1-2.08c.19-.52.42-1.05.67-1.6a.37.37,0,0,1-.2-.24A2,2,0,0,1,62.23,10.18Zm-2.35,8.61a1.22,1.22,0,0,1,.12-.26c.08-.14.15-.28.24-.43l.24-.42.15-.23h0a.83.83,0,0,1-.09.25l-.2.38-.2.36c-.06.11-.08.17-.07.18a.09.09,0,0,1,0,.06ZM61,15.73c.08,0,.13-.07.13-.09v0a.67.67,0,0,1,.05-.17,3.54,3.54,0,0,1,.12-.34,3.79,3.79,0,0,0,.12-.36.85.85,0,0,0,.06-.23h0l-.1.2-.16.39c-.05.14-.1.28-.15.4A1.8,1.8,0,0,0,61,15.73Zm1.13-1.1a.14.14,0,0,1,0-.07.08.08,0,0,1,0-.05l0,0v0a.27.27,0,0,1,0-.08,1.09,1.09,0,0,1,.08-.15l.08-.16a.45.45,0,0,0,0-.13h0a1.16,1.16,0,0,1-.13.28l-.32.65c-.13.25-.24.5-.34.74a1.7,1.7,0,0,0-.15.52h0a1.29,1.29,0,0,0,.12-.22l.27-.51.38-.77A.07.07,0,0,1,62.15,14.63Zm.65.64a.16.16,0,0,0,.16.09.29.29,0,0,0,.16,0,.14.14,0,0,0,.06-.12.13.13,0,0,0-.06,0l-.23-.08-.06,0a.1.1,0,0,0,0,.08v.06Zm.28-1,0,0,0,0,0,0,0,.05,0,0a0,0,0,0,0,0,0l.08,0,.08,0Zm.77-.77,0,0,0,0h0a.49.49,0,0,1,0,.1.8.8,0,0,0-.05.11l.1-.06Zm4.47-4.28a8.35,8.35,0,0,0,1.77-.16,4.64,4.64,0,0,0,1.26-.43A3.17,3.17,0,0,0,72.2,8a3.34,3.34,0,0,0,.51-.73A3.2,3.2,0,0,0,73,6.55c.07-.25.12-.48.16-.68V5.78c0-.2-.14-.35-.41-.44a3.24,3.24,0,0,0-1-.14,8.24,8.24,0,0,0-.85,0,7.17,7.17,0,0,0-.83.16,4.23,4.23,0,0,0-.71.23,1.58,1.58,0,0,0-.49.28c-.29.55-.59,1.07-.89,1.56a11,11,0,0,0-.81,1.57,3.05,3.05,0,0,0-.15.4h0s.06-.05.13-.14.12-.15.16-.15a4.35,4.35,0,0,0,.52.06Z"/><path class="cls-1" d="M82.5,3.51s0,0,0,0a.13.13,0,0,1,0-.09s0-.07.08-.12a.3.3,0,0,1,.08-.08l.24.08A.69.69,0,0,1,83,3.1l.21-.16a1.54,1.54,0,0,0,.19-.17.27.27,0,0,0,.08-.2s0,0,.09-.08a.56.56,0,0,1,.26,0H84a.25.25,0,0,1,.06-.2.24.24,0,0,1,.13,0h.11a1.23,1.23,0,0,0,.67-.16.81.81,0,0,1,.39-.16.37.37,0,0,1,.17.05A3.08,3.08,0,0,0,86,1.89l.77-.12.92-.14.94-.15.8-.11a4.67,4.67,0,0,1,.51-.05,2.82,2.82,0,0,1,.77.13,1.32,1.32,0,0,1,.71.56,3.94,3.94,0,0,1,.48,1.05,3.62,3.62,0,0,1-.22,2.88,5.64,5.64,0,0,1-1.08,1.4,8.49,8.49,0,0,1-1.39,1.08,14.49,14.49,0,0,1-1.41.76,11.33,11.33,0,0,1-1.1.44l-.45.14a5.46,5.46,0,0,1-1.3.51l-1.27.35a4.12,4.12,0,0,0,.51.89,9.12,9.12,0,0,0,1.14,1.22,19,19,0,0,0,2,1.55c.8.57,1.8,1.19,3,1.86.66.37,1.34.72,2.05,1s1.42.63,2.14.93l2.16.94c.71.32,1.41.67,2.09,1.05l.21.06.23.08a1.13,1.13,0,0,1,.21.12.76.76,0,0,1,.18.21h-.17a.3.3,0,0,1-.15,0,.52.52,0,0,0-.16-.06.66.66,0,0,0-.19,0,.35.35,0,0,0,.14.33,1.05,1.05,0,0,1,.27.2s0,0,0,.06l-.54-.16-.51-.19a.86.86,0,0,0-.37.1.82.82,0,0,1-.35.1.87.87,0,0,1-.32-.06l-.32-.13-.32-.13a.8.8,0,0,0-.3-.06,1.58,1.58,0,0,1-.38,0,1.61,1.61,0,0,1-.37,0,.3.3,0,0,1-.16-.05l-.14-.12a.91.91,0,0,0-.16-.11.33.33,0,0,0-.19-.06,4.5,4.5,0,0,1-.63-.05c-.28,0-.6-.08-.95-.15s-.73-.14-1.13-.24-.8-.19-1.18-.29-.73-.22-1.06-.34A5.5,5.5,0,0,1,89,18.8c-1.24-.66-2.26-1.25-3.07-1.77a23,23,0,0,1-2-1.4,9.47,9.47,0,0,1-1.18-1.09,10.68,10.68,0,0,1-.7-.86l-.52-.7a2.66,2.66,0,0,0-.64-.6,9.26,9.26,0,0,0-.72,1.13,13.66,13.66,0,0,0-.67,1.58,9.28,9.28,0,0,1-.84,1.84,1.16,1.16,0,0,1-1,.65.11.11,0,0,1-.12-.12.13.13,0,0,1,0-.06l.09-.33-.44.91c0,.1-.07.15-.1.15h0a1,1,0,0,1,.07-.35,2.72,2.72,0,0,1,.18-.44l.2-.45.18-.38a3.93,3.93,0,0,0-.44.64c-.15.27-.28.53-.4.78l-.31.66a1.47,1.47,0,0,1-.13.28h0a.44.44,0,0,1,0-.1l0-.12.1-.27c.07-.17.13-.34.18-.49l0,0c.06-.18.11-.32.14-.43s.08-.25.15-.42v0c-.09.18-.15.33-.2.44s-.1.21-.14.31-.06.13-.08.13a.06.06,0,0,1,0,0,.18.18,0,0,1,0-.06.9.9,0,0,1,0-.16l.09-.33c0-.14.11-.33.19-.58l0,0s0,0-.07.08a1.81,1.81,0,0,0-.12.22c0,.11-.12.27-.2.5a1.26,1.26,0,0,1-.13.26q-.06.12-.09.12s0,0,0,0a.93.93,0,0,1,.06-.25l.2-.6a0,0,0,0,0,0,0c-.06,0-.12.08-.19.25s-.13.35-.2.56-.14.39-.19.55-.1.25-.13.25,0,0,0,0a1.7,1.7,0,0,1,.05-.25l.09-.3s0-.08.05-.2.06-.27.1-.41l.14-.56-.2.57c0,.12-.06.17-.07.17a2.91,2.91,0,0,1,.08-.35c0-.23.12-.49.2-.77l.2-.81a3,3,0,0,0,.09-.51l-.21.54q-.12.33-.24.6c-.07.19-.14.35-.2.48s-.1.2-.11.2h0s0-.17.1-.45.18-.71.34-1.3.37-1.32.65-2.23.63-2,1.06-3.28l.27-.85c.35-1.08.62-1.9.83-2.47a8.52,8.52,0,0,1,.49-1.17c.09-.23.16-.45.24-.65s.14-.36.19-.47a.64.64,0,0,0,.05-.2l0-.27c0-.1,0-.17.06-.24a.13.13,0,0,1,.13-.1,1.47,1.47,0,0,1,.46.12,6.62,6.62,0,0,1,.65.25,6,6,0,0,1,.6.26,1.05,1.05,0,0,1,.27.15.34.34,0,0,1,.12.08,2,2,0,0,1,.22.2,1.27,1.27,0,0,1,.21.25.48.48,0,0,1,.09.26,2.46,2.46,0,0,0,0,.26,2.26,2.26,0,0,1,0,.26,4.18,4.18,0,0,1-.1.92,9,9,0,0,1-.24.93c-.1.31-.2.61-.31.91s-.19.59-.26.87-.09.38-.09.4h0s.05-.05.1-.14.08-.15.12-.15a4.64,4.64,0,0,0,1.66-.37A5.84,5.84,0,0,0,85.08,8a6.42,6.42,0,0,0,1-1.07,10.91,10.91,0,0,0,.73-1.09c.2-.35.36-.66.48-.92l.27-.56A3,3,0,0,0,87,4.27c-.28,0-.59,0-.94-.06l-1.14,0H83.06c-.23,0-.37,0-.41-.12l.15-.18a.27.27,0,0,0,.07-.19v0s0,0,0,0h-.11A.24.24,0,0,1,82.5,3.51ZM76.11,18.79a1.26,1.26,0,0,1,.09-.23q.06-.15.15-.33l.15-.33a1.34,1.34,0,0,0,.08-.19.63.63,0,0,1,0,.19c0,.09-.06.19-.1.28l-.1.27a.68.68,0,0,0,0,.17h0c0,.07-.07.16-.13.27s-.1.16-.12.16A.87.87,0,0,1,76.11,18.79ZM76.74,16c.05,0,.09-.07.12-.17a.66.66,0,0,0,0-.16v-.05a1.62,1.62,0,0,1,0-.21L77,15a2.9,2.9,0,0,1,.07-.34,1.88,1.88,0,0,0,0-.19,1.26,1.26,0,0,0-.07.24c0,.14-.08.3-.12.47s-.08.34-.11.49A1.27,1.27,0,0,0,76.74,16Zm1.94-3.56a.25.25,0,0,1,0-.1.63.63,0,0,0-.09.2c0,.12-.09.24-.14.37s-.1.26-.15.38a.58.58,0,0,1-.12.2,1.44,1.44,0,0,0-.12.3c-.06.2-.14.42-.21.67s-.15.5-.21.74a1.94,1.94,0,0,0-.1.47v0l.09-.22c.06-.16.14-.36.22-.6l.27-.77c.1-.27.19-.53.27-.76s.19-.52.31-.85A.14.14,0,0,1,78.68,12.41Zm-.45,3.2,0,0a0,0,0,0,0,0,0l0,0,0,.05,0,0a0,0,0,0,0,0,0l-.18.54a1.65,1.65,0,0,0,0,.22v0s0,0,.08-.12a1.38,1.38,0,0,0,.14-.24l.19-.36Zm.85-.63c-.09,0-.14.07-.14.15a.28.28,0,0,0,0,.18s.05,0,0,0a.1.1,0,0,0,.07,0l.15-.24,0-.06,0,0,0,0-.06,0Zm.17-1.38,0,0,0,0,0,0,0,0,0,0s0,0,0,0a.51.51,0,0,1,0,.09.38.38,0,0,0,0,.1v0ZM81.63,3.54s0,0,0,0l0-.06a.12.12,0,0,1,0-.08.1.1,0,0,1,.05,0l.27.09.06,0s0,.09-.14.12l-.18,0a0,0,0,0,1,0,0A.17.17,0,0,0,81.63,3.54Zm1.3-1.06a0,0,0,0,1,0,0l0-.06s0,0,.05-.07a.1.1,0,0,1,0-.05l.28.09s.06,0,.06,0,0,.09-.15.11l-.17,0s0,0,0,0A.13.13,0,0,0,82.93,2.48Zm.6,7.76,1-.16a1.57,1.57,0,0,1-.29,0l-.35,0h-.25c-.06,0-.1,0-.1.1Z"/><path class="cls-1" d="M88.65,18.28l.19-.23.25-.26c.09-.09.17-.16.23-.23s.11-.1.13-.1a0,0,0,0,1,0,0,.82.82,0,0,1-.22.51c-.15.18-.27.32-.38.43s-.23.26-.35.38a.74.74,0,0,1-.41.21l.19-.26a2.79,2.79,0,0,1,.17-.25C88.54,18.42,88.59,18.34,88.65,18.28Zm14.11-7.15-1.47,0H99l-.5,0-.58.68-.58.68-.5.55a1.8,1.8,0,0,1-.33.3.77.77,0,0,1-.16.11l-.3.2-.34.25-.3.25a0,0,0,0,0,0,0,.63.63,0,0,0,.23-.09l.35-.18.32-.19.22-.12a2,2,0,0,0-.37.29c-.18.17-.38.35-.58.55l-.56.56a4.34,4.34,0,0,0-.3.32l-.56.61-.74.79c-.27.28-.57.57-.88.87s-.63.6-1,.89l-.23.21-.44.41c-.16.14-.31.28-.46.4a1.1,1.1,0,0,1-.3.2.84.84,0,0,1,.12-.21c.07-.11.17-.25.29-.41l.38-.51.38-.52.3-.42a.58.58,0,0,0,.11-.23h0a1.2,1.2,0,0,0-.34.25l-.55.51-.54.5c-.16.15-.26.23-.31.23a2.46,2.46,0,0,1,.21-.29l.46-.6c.16-.21.32-.4.45-.58a3.18,3.18,0,0,0,.21-.28,0,0,0,0,0,0,0,.8.8,0,0,0-.31.17c-.16.12-.33.25-.5.4l-.49.39a.88.88,0,0,1-.3.18.2.2,0,0,1-.09-.17.53.53,0,0,1,0-.2l.12-.23.11-.23a.46.46,0,0,0,0-.21.17.17,0,0,0,0-.1.16.16,0,0,1,0-.11.7.7,0,0,1,.19-.41,5.67,5.67,0,0,1,.36-.44.13.13,0,0,0,.11-.07.8.8,0,0,0,.08-.16c0-.06.05-.12.07-.17a.33.33,0,0,1,.06-.12l.52-.51a2,2,0,0,0,.41-.49,1.24,1.24,0,0,0-.2.18l-.46.45-.61.59-.63.61-.54.49a1.25,1.25,0,0,1-.32.26s0,0,0,0a.67.67,0,0,1,.14-.27l.36-.46.47-.54c.18-.19.33-.36.47-.54a5,5,0,0,0,.36-.45.58.58,0,0,0,.15-.25s0,0,0,0l-.47.49-.43.45-.36.34a.83.83,0,0,1-.24.17,4.51,4.51,0,0,1,.3-.43c.14-.18.32-.39.52-.62s.45-.49.7-.76.54-.56.83-.85a5.8,5.8,0,0,0,.42-.47l.7-.84.69-.84.38-.46.76-1c.21-.29.45-.59.7-.92L96.08,8c.24-.29.44-.55.62-.75a1.85,1.85,0,0,1,.36-.36L98,5.75c.34-.43.69-.87,1-1.34L100.11,3l1-1.3.84-1,.51-.6a.38.38,0,0,1,.23-.08.8.8,0,0,1,.56.27,7.54,7.54,0,0,0,.58.54,4.42,4.42,0,0,1,.76.9,7,7,0,0,1,.54,1.06,9.26,9.26,0,0,1,.36,1.09,9.85,9.85,0,0,1,.22,1c.05.3.09.57.11.79s0,.38,0,.47c0,.66,0,1.25,0,1.77s0,1,0,1.44l1.31,0-1.33.38h2.82a1.36,1.36,0,0,1,.3,0c.09,0,.14,0,.14.06s-.09,0-.28,0h-1.37l-.65,0-.87,0v0s0,0-.09,0v.19h.39l.6,0h.69l.65,0,.48,0c.13,0,.19,0,.19,0s-.09,0-.27,0h-2.73v0a1.33,1.33,0,0,1,.46,0s0,0-.12,0l-.34,0v.18a.91.91,0,0,0,0,.17c.36,0,.68.07.93.11s.39.08.39.12-.1.06-.3.08-.55.05-1,.07c0,.41,0,.78,0,1.11s0,.64,0,1l-.06.92c0,.31,0,.64,0,1a4.28,4.28,0,0,1-.21,1.34c-.12.29-.29.44-.51.44a1.64,1.64,0,0,1-.81-.38.57.57,0,0,1-.25.14,1,1,0,0,1-.28,0c-.1,0-.2-.13-.29-.39a8.83,8.83,0,0,1-.25-.91c-.07-.35-.13-.7-.18-1a5.87,5.87,0,0,1-.07-.79ZM89.38,19l.45-.51a1.13,1.13,0,0,1,.18-.19c.1-.11.22-.22.35-.34a4.6,4.6,0,0,1,.35-.31.72.72,0,0,1,.22-.14,1.4,1.4,0,0,1-.16.19l-.34.37c-.13.12-.29.29-.51.51v.06h-.09Zm1.05-2.57a.35.35,0,0,0,.17,0c.06,0,.08-.06.08-.09a1.62,1.62,0,0,1,.1-.15l.23-.29c.09-.1.16-.21.23-.3a.55.55,0,0,0,.1-.18l-.17.18-.3.32-.29.35A.86.86,0,0,0,90.43,16.41Zm2.4-2.08.06-.06.11-.08a.05.05,0,0,1,0,0s0,0-.12,0a1.21,1.21,0,0,0-.18.18l-.43.46c-.17.18-.36.38-.55.6s-.39.42-.56.62l-.43.49a.76.76,0,0,0-.16.25s0,0,.16-.17l.43-.44.56-.58.55-.58.43-.45A1.21,1.21,0,0,1,92.83,14.33Zm-1.37,2.14,0,0-.06,0a1.24,1.24,0,0,0-.16.19c0,.06-.08.1-.12.15s0,.07,0,.07l.09-.06.23-.23Zm1.67-3.77h0a.73.73,0,0,0-.3.14c-.14.09-.29.19-.43.3l-.9,1.36c.19-.16.36-.32.52-.48l.5-.56.3-.34.18-.21.09-.12Zm-1.26,4.59a.44.44,0,0,0,.17-.15.54.54,0,0,1,.18-.15l0,0,0,0,0,0a.91.91,0,0,0-.14.18A.44.44,0,0,0,91.87,17.29Zm.55-2.4s0,.08.06.08h.06l0,0v0a0,0,0,0,0,0,0h-.12Zm.24,1.1s0,0,0,.08a.19.19,0,0,0,.12,0q.09,0,.09-.06a.08.08,0,0,0,0-.05.7.7,0,0,1-.15-.14l0,0,0,0Zm.47-.76s0,0,0,0v0a.08.08,0,0,1,0-.05.12.12,0,0,0-.09,0l0,0s0,0,.08.06,0,.07.07.07Zm1-.6s-.08,0-.07,0,0-.05-.09-.05a.31.31,0,0,0-.26.2.7.7,0,0,0-.12.36.13.13,0,0,0,.13.07h.06c0-.12,0-.17,0-.18h.12c.09,0,.14,0,.14-.1A1,1,0,0,1,94.11,14.63ZM94,14.07h0a.13.13,0,0,0,0,.08.41.41,0,0,0,.07.12c.05.05.09.08.12.08l0,0,0,0C94.17,14.15,94.1,14.07,94,14.07Zm.63-.35c.06.17.11.26.15.26l.14-.08a.39.39,0,0,0,.1-.08.21.21,0,0,0,0-.13l-.11-.1-.1,0a.31.31,0,0,0-.11.09A.14.14,0,0,1,94.58,13.72Zm8.2-4.47V7.19c0-.18,0-.37,0-.56s0-.35,0-.47l.18-.3a0,0,0,0,0,0,0s0,0-.09.06l-.09.06a18.14,18.14,0,0,0-1.37,1.56l-1.37,1.77,1-.13c.33,0,.61-.05.84-.05a1.15,1.15,0,0,1,.68.12Zm0,.73v0h-1l.5,0Z"/><path class="cls-1" d="M114.23,3.51s0,0,0,0a.13.13,0,0,1,0-.09s0-.07.08-.12a.2.2,0,0,1,.08-.08l.24.08a.69.69,0,0,1,.17-.17l.21-.16a1.54,1.54,0,0,0,.19-.17.32.32,0,0,0,.08-.2s0,0,.09-.08a.56.56,0,0,1,.26,0h.12a.25.25,0,0,1,.07-.2.24.24,0,0,1,.13,0H116a1.23,1.23,0,0,0,.67-.16A.81.81,0,0,1,117,1.9a.41.41,0,0,1,.17.05,3.08,3.08,0,0,0,.47-.06l.77-.12.92-.14.94-.15.79-.11a5,5,0,0,1,.52-.05,2.88,2.88,0,0,1,.77.13,1.35,1.35,0,0,1,.71.56,3.94,3.94,0,0,1,.48,1.05,3.87,3.87,0,0,1,.2,1.15,3.6,3.6,0,0,1-.42,1.73,5.89,5.89,0,0,1-1.08,1.4,8.16,8.16,0,0,1-1.4,1.08,13.34,13.34,0,0,1-1.4.76,11.33,11.33,0,0,1-1.1.44l-.45.14a5.36,5.36,0,0,1-1.31.51l-1.27.35a4.73,4.73,0,0,0,.52.89A9,9,0,0,0,117,12.73a20.38,20.38,0,0,0,2,1.55,33.6,33.6,0,0,0,3,1.86c.66.37,1.34.72,2,1s1.41.63,2.13.93l2.16.94q1.08.48,2.1,1.05l.21.06.23.08a1.13,1.13,0,0,1,.21.12.74.74,0,0,1,.17.21H131a.33.33,0,0,1-.16,0,.47.47,0,0,0-.15-.06l-.2,0a.35.35,0,0,0,.15.33,1.26,1.26,0,0,1,.27.2s0,0,0,.06l-.54-.16-.51-.19a.82.82,0,0,0-.37.1.82.82,0,0,1-.35.1,1,1,0,0,1-.33-.06l-.32-.13-.31-.13a.8.8,0,0,0-.3-.06,1.58,1.58,0,0,1-.38,0,1.55,1.55,0,0,1-.37,0,.3.3,0,0,1-.16-.05l-.14-.12-.16-.11a.33.33,0,0,0-.19-.06,4.5,4.5,0,0,1-.63-.05c-.28,0-.6-.08-1-.15s-.74-.14-1.14-.24l-1.17-.29c-.38-.11-.73-.22-1.06-.34a6.2,6.2,0,0,1-.82-.34q-1.84-1-3.06-1.77a23,23,0,0,1-2-1.4,9.47,9.47,0,0,1-1.18-1.09,10.68,10.68,0,0,1-.7-.86l-.52-.7a2.66,2.66,0,0,0-.64-.6,8.2,8.2,0,0,0-.72,1.13,13.66,13.66,0,0,0-.67,1.58,9.28,9.28,0,0,1-.84,1.84,1.16,1.16,0,0,1-1,.65.11.11,0,0,1-.12-.12.13.13,0,0,1,0-.06l.09-.33L109,18c0,.1-.07.15-.1.15h0a1,1,0,0,1,.07-.35,2.65,2.65,0,0,1,.17-.44l.21-.45.17-.38a4.71,4.71,0,0,0-.43.64c-.15.27-.28.53-.4.78s-.23.47-.31.66a1.47,1.47,0,0,1-.13.28h0a.44.44,0,0,1,0-.1l0-.12a2.18,2.18,0,0,1,.1-.27c.07-.17.12-.34.18-.49l0,0c.06-.18.1-.32.14-.43s.08-.25.14-.42v0l-.19.44c-.05.11-.1.21-.14.31s-.07.13-.08.13,0,0,0,0a.18.18,0,0,1,0-.06.69.69,0,0,1,0-.16c0-.08.06-.19.1-.33s.11-.33.19-.58l0,0s0,0-.07.08a1.81,1.81,0,0,0-.12.22c0,.11-.12.27-.2.5a1.26,1.26,0,0,1-.13.26c0,.08-.08.12-.1.12s0,0,0,0a.93.93,0,0,1,.06-.25l.2-.6a0,0,0,0,0,0,0c-.06,0-.12.08-.19.25s-.13.35-.2.56-.14.39-.19.55-.1.25-.13.25,0,0,0,0a1.7,1.7,0,0,1,0-.25l.09-.3a1.46,1.46,0,0,1,0-.2c0-.13.07-.27.11-.41s.09-.36.14-.56l-.2.57c0,.12-.07.17-.08.17s0-.13.09-.35.12-.49.2-.77l.2-.81a3,3,0,0,0,.09-.51l-.21.54q-.12.33-.24.6c-.07.19-.14.35-.2.48s-.1.2-.11.2h0s0-.17.1-.45l.33-1.3c.16-.58.38-1.32.66-2.23s.63-2,1.06-3.28l.27-.85c.34-1.08.62-1.9.83-2.47a8.52,8.52,0,0,1,.49-1.17c.08-.23.16-.45.24-.65s.14-.36.19-.47a.69.69,0,0,0,0-.2c0-.09,0-.18,0-.27s0-.17.06-.24a.13.13,0,0,1,.13-.1,1.53,1.53,0,0,1,.46.12,6.62,6.62,0,0,1,.65.25c.23.09.42.17.6.26a1.05,1.05,0,0,1,.27.15.34.34,0,0,1,.12.08,2,2,0,0,1,.22.2,1.27,1.27,0,0,1,.21.25.48.48,0,0,1,.09.26,2.35,2.35,0,0,0,0,.26,2.28,2.28,0,0,1,0,.26,4.18,4.18,0,0,1-.1.92q-.11.48-.24.93c-.1.31-.2.61-.31.91s-.19.59-.26.87-.09.38-.09.4h0s0-.05.09-.14.09-.15.13-.15a4.54,4.54,0,0,0,1.65-.37A5.69,5.69,0,0,0,116.81,8a6.42,6.42,0,0,0,1-1.07,10.91,10.91,0,0,0,.73-1.09c.19-.35.36-.66.48-.92l.27-.56a3,3,0,0,0-.56-.08c-.28,0-.59,0-1-.06l-1.13,0h-1.88c-.23,0-.37,0-.41-.12l.15-.18a.27.27,0,0,0,.06-.19v0s0,0,0,0h-.11A.24.24,0,0,1,114.23,3.51Zm-6.39,15.28a2.2,2.2,0,0,1,.08-.23l.16-.33q.08-.18.15-.33l.08-.19a.63.63,0,0,1,0,.19l-.1.28-.1.27a.68.68,0,0,0,0,.17h0c0,.07-.07.16-.13.27s-.1.16-.13.16A1,1,0,0,1,107.84,18.79Zm.62-2.82c.06,0,.1-.07.13-.17a.66.66,0,0,0,0-.16v-.05a1.62,1.62,0,0,1,0-.21l.06-.35c0-.12,0-.24.06-.34a1.88,1.88,0,0,0,0-.19,1.82,1.82,0,0,0-.06.24c0,.14-.08.3-.12.47s-.08.34-.11.49A1.73,1.73,0,0,0,108.46,16Zm2-3.56a.25.25,0,0,1,0-.1.83.83,0,0,0-.1.2c0,.12-.08.24-.13.37s-.1.26-.15.38a.73.73,0,0,1-.13.2,2.07,2.07,0,0,0-.11.3c-.07.2-.14.42-.21.67l-.22.74a2.34,2.34,0,0,0-.09.47v0l.09-.22q.09-.24.21-.6c.09-.23.18-.49.28-.77s.19-.53.27-.76.18-.52.31-.85A.14.14,0,0,1,110.41,12.41Zm-.45,3.2s0,0,0,0l0,0,0,0,0,.05,0,0a0,0,0,0,0,0,0l-.18.54a1.65,1.65,0,0,0,0,.22v0s0,0,.08-.12a2.55,2.55,0,0,0,.14-.24l.19-.36Zm.85-.63c-.09,0-.14.07-.14.15a.28.28,0,0,0,0,.18s0,0,0,0,0,0,.07,0,.07-.11.14-.24l0-.06,0,0,0,0-.06,0ZM111,13.6l0,0,0,0,0,0,0,0,0,0s0,0,0,0a.51.51,0,0,1,0,.09.38.38,0,0,0,0,.1v0Zm2.39-10.06s0,0,0,0l0-.06a.12.12,0,0,1,0-.08.1.1,0,0,1,0,0l.27.09.06,0s0,.09-.14.12l-.18,0a0,0,0,0,1,0,0A.17.17,0,0,0,113.36,3.54Zm1.29-1.06a0,0,0,0,1,0,0l0-.06s0,0,0-.07l0-.05.27.09.07,0c0,.05-.05.09-.15.11l-.17,0s0,0,0,0S114.68,2.51,114.65,2.48Zm.61,7.76,1-.16a1.57,1.57,0,0,1-.29,0l-.35,0h-.25c-.06,0-.1,0-.1.1Z"/></g></g></svg>