<svg xmlns="http://www.w3.org/2000/svg" viewBox="0 0 14.1 13"><defs><style>.cls-1{fill:#fff;}</style></defs><g id="Capa_2" data-name="Capa 2"><g id="Capa_1-2" data-name="Capa 1"><path class="cls-1" d="M5.76,8.84H12a.6.6,0,0,1,.6.6A.59.59,0,0,1,12,10H5.18a.6.6,0,0,1-.6-.6V3.74L3.12,1.19H.6A.59.59,0,0,1,0,.6.6.6,0,0,1,.6,0H3.16a1.71,1.71,0,0,1,.45,0c.22.06.33.28.44.47.31.57.64,1.12,1,1.68h8.14a1.68,1.68,0,0,1,.55,0,.64.64,0,0,1,.37.35.52.52,0,0,1,0,.25,1,1,0,0,1,0,.3c-.06.2-.11.41-.17.62-.22.83-.45,1.65-.67,2.48L13,7.14l-.06.21a.61.61,0,0,1-.12.16.54.54,0,0,1-.31.2H5.76Zm1.1-5.47H5.76V4.2h1.1Zm.41.83H9l.07-.82H7.27Zm2.22-.81-.1.82H11l.16-.83Zm2.11,0-.17.81h1.13l.23-.82ZM6.86,4.53H5.76v.83h1.1Zm.41.83H8.89L9,4.54H7.27Zm2.09-.81-.1.82h1.55L11,4.54Zm2,0-.16.81h1.08l.21-.82ZM6.86,5.69H5.76v.83h1.1Zm.38.83H8.79l.07-.82H7.25Zm2-.81-.09.82H10.6l.14-.83Zm1.87,0L11,6.52h1l.21-.82Z"/><path class="cls-1" d="M8.67,11.63A1.37,1.37,0,1,1,7.3,10.26,1.37,1.37,0,0,1,8.67,11.63ZM7.3,11a.67.67,0,0,0-.68.68.68.68,0,0,0,.68.69A.69.69,0,0,0,8,11.63.68.68,0,0,0,7.3,11Z"/><path class="cls-1" d="M11.77,11.63a1.37,1.37,0,1,1-1.37-1.37A1.37,1.37,0,0,1,11.77,11.63ZM10.4,11a.68.68,0,0,0-.69.68.69.69,0,0,0,.69.69.68.68,0,0,0,.68-.69A.67.67,0,0,0,10.4,11Z"/></g></g></svg>