<svg xmlns="http://www.w3.org/2000/svg" viewBox="0 0 23 23"><defs><style>.cls-1{fill:#e20613;}</style></defs><g id="Capa_2" data-name="Capa 2"><g id="Capa_1-2" data-name="Capa 1"><circle class="cls-1" cx="11.5" cy="11.5" r="11.5"/><path d="M11.5,1.15A10.35,10.35,0,1,0,21.85,11.5,10.36,10.36,0,0,0,11.5,1.15ZM18.83,5.9c-4.44,7.69-11.27,1.76-4.54,2.68-2.7-1.86-3.37-4.06-8-4.72a9.19,9.19,0,0,1,12.51,2ZM5.9,4.16c7.72,4.45,1.78,11.28,2.7,4.55-1.86,2.7-4.07,3.37-4.72,8a9.21,9.21,0,0,1,2-12.55ZM4.17,17.1c4.44-7.69,11.27-1.76,4.54-2.68,2.7,1.86,3.37,4.06,8,4.72a9.19,9.19,0,0,1-12.51-2ZM17.1,18.84c-7.72-4.45-1.78-11.28-2.7-4.55,1.86-2.7,4.07-3.37,4.72-8a9.21,9.21,0,0,1-2,12.55Z"/></g></g></svg>